# xmcd CD database file
#
# Track frame offsets:
#	150
#	18900
#	40800
#	55800
#	75825
#	90525
#	106650
#	116550
#	132675
#	145350
#	161325
#	176850
#	191700
#	208575
#	226800
#	242925
#	258675
#
# Disc length: 3650 seconds
#
# Revision: 0
# Processed by: cddbd v1.5.1PL0 Copyright (c) Steve Scherf et al.
# Submitted via: CDex 1.51
#
DISCID=e50e4011
DTITLE=Golly - Klaus Brandl - Gerd Heide - Evi Böttcher - Drunkhard's Dream
DYEAR=1997
DGENRE=Blues
TTITLE0=Up To The Sky
TTITLE1=The Devil's Plans
TTITLE2=The Devil, The Woman And The Booze
TTITLE3=In The Cold Of The Night
TTITLE4=It Ain't Rigth
TTITLE5=Head In The Clouds
TTITLE6=The Last Ride
TTITLE7=She Keeps Walking The Streets
TTITLE8=Stalker Blues
TTITLE9=Farewell
TTITLE10=Victims Of The Bet
TTITLE11=That ain't Bad
TTITLE12=Dirty Old Town
TTITLE13=Golly Headline
TTITLE14=Oh Ain't That A Shame
TTITLE15=You Know Don't You
TTITLE16=Drunkhard's Dream
EXTD=YEAR: 1997
EXTT0=
EXTT1=
EXTT2=
EXTT3=
EXTT4=
EXTT5=
EXTT6=
EXTT7=
EXTT8=
EXTT9=
EXTT10=
EXTT11=
EXTT12=
EXTT13=
EXTT14=
EXTT15=
EXTT16=
PLAYORDER=
